<svg width="46" height="44" viewBox="0 0 46 44" fill="none" xmlns="http://www.w3.org/2000/svg">
<ellipse cx="1.0025" cy="43.0393" rx="0.960696" ry="1.0025" transform="rotate(-90 1.0025 43.0393)" fill="#017CED"/>
<ellipse cx="1.0025" cy="17.869" rx="0.960696" ry="1.0025" transform="rotate(-90 1.0025 17.869)" fill="#017CED"/>
<ellipse cx="9.82526" cy="43.0393" rx="0.960696" ry="1.0025" transform="rotate(-90 9.82526 43.0393)" fill="#017CED"/>
<ellipse cx="9.82526" cy="17.8689" rx="0.960696" ry="1.0025" transform="rotate(-90 9.82526 17.8689)" fill="#017CED"/>
<ellipse cx="18.6465" cy="43.0393" rx="0.960696" ry="1.0025" transform="rotate(-90 18.6465 43.0393)" fill="#017CED"/>
<ellipse cx="18.6465" cy="17.8689" rx="0.960696" ry="1.0025" transform="rotate(-90 18.6465 17.8689)" fill="#017CED"/>
<ellipse cx="27.4688" cy="43.0393" rx="0.960696" ry="1.0025" transform="rotate(-90 27.4688 43.0393)" fill="#017CED"/>
<ellipse cx="27.4688" cy="17.8689" rx="0.960696" ry="1.0025" transform="rotate(-90 27.4688 17.8689)" fill="#017CED"/>
<ellipse cx="36.2906" cy="43.0391" rx="0.960696" ry="1.0025" transform="rotate(-90 36.2906 43.0391)" fill="#017CED"/>
<ellipse cx="44.9976" cy="43.0391" rx="0.960696" ry="1.0025" transform="rotate(-90 44.9976 43.0391)" fill="#017CED"/>
<ellipse cx="36.2906" cy="17.8689" rx="0.960696" ry="1.0025" transform="rotate(-90 36.2906 17.8689)" fill="#017CED"/>
<ellipse cx="44.9976" cy="17.8689" rx="0.960696" ry="1.0025" transform="rotate(-90 44.9976 17.8689)" fill="#017CED"/>
<ellipse cx="1.0025" cy="34.5852" rx="0.960696" ry="1.0025" transform="rotate(-90 1.0025 34.5852)" fill="#017CED"/>
<ellipse cx="1.0025" cy="9.41479" rx="0.960696" ry="1.0025" transform="rotate(-90 1.0025 9.41479)" fill="#017CED"/>
<ellipse cx="9.82526" cy="34.5852" rx="0.960696" ry="1.0025" transform="rotate(-90 9.82526 34.5852)" fill="#017CED"/>
<ellipse cx="9.82526" cy="9.41479" rx="0.960696" ry="1.0025" transform="rotate(-90 9.82526 9.41479)" fill="#017CED"/>
<ellipse cx="18.6465" cy="34.5852" rx="0.960696" ry="1.0025" transform="rotate(-90 18.6465 34.5852)" fill="#017CED"/>
<ellipse cx="18.6465" cy="9.41479" rx="0.960696" ry="1.0025" transform="rotate(-90 18.6465 9.41479)" fill="#017CED"/>
<ellipse cx="27.4688" cy="34.5852" rx="0.960696" ry="1.0025" transform="rotate(-90 27.4688 34.5852)" fill="#017CED"/>
<ellipse cx="27.4688" cy="9.41479" rx="0.960696" ry="1.0025" transform="rotate(-90 27.4688 9.41479)" fill="#017CED"/>
<ellipse cx="36.2906" cy="34.5852" rx="0.960696" ry="1.0025" transform="rotate(-90 36.2906 34.5852)" fill="#017CED"/>
<ellipse cx="44.9976" cy="34.5852" rx="0.960696" ry="1.0025" transform="rotate(-90 44.9976 34.5852)" fill="#017CED"/>
<ellipse cx="36.2906" cy="9.41479" rx="0.960696" ry="1.0025" transform="rotate(-90 36.2906 9.41479)" fill="#017CED"/>
<ellipse cx="44.9976" cy="9.41479" rx="0.960696" ry="1.0025" transform="rotate(-90 44.9976 9.41479)" fill="#017CED"/>
<ellipse cx="1.0025" cy="26.131" rx="0.960696" ry="1.0025" transform="rotate(-90 1.0025 26.131)" fill="#017CED"/>
<ellipse cx="1.0025" cy="0.960691" rx="0.960696" ry="1.0025" transform="rotate(-90 1.0025 0.960691)" fill="#017CED"/>
<ellipse cx="9.82526" cy="26.1309" rx="0.960696" ry="1.0025" transform="rotate(-90 9.82526 26.1309)" fill="#017CED"/>
<ellipse cx="9.82526" cy="0.960691" rx="0.960696" ry="1.0025" transform="rotate(-90 9.82526 0.960691)" fill="#017CED"/>
<ellipse cx="18.6465" cy="26.1309" rx="0.960696" ry="1.0025" transform="rotate(-90 18.6465 26.1309)" fill="#017CED"/>
<ellipse cx="18.6465" cy="0.960691" rx="0.960696" ry="1.0025" transform="rotate(-90 18.6465 0.960691)" fill="#017CED"/>
<ellipse cx="27.4688" cy="26.1309" rx="0.960696" ry="1.0025" transform="rotate(-90 27.4688 26.1309)" fill="#017CED"/>
<ellipse cx="27.4688" cy="0.960691" rx="0.960696" ry="1.0025" transform="rotate(-90 27.4688 0.960691)" fill="#017CED"/>
<ellipse cx="36.2906" cy="26.1311" rx="0.960696" ry="1.0025" transform="rotate(-90 36.2906 26.1311)" fill="#017CED"/>
<ellipse cx="44.9976" cy="26.1311" rx="0.960696" ry="1.0025" transform="rotate(-90 44.9976 26.1311)" fill="#017CED"/>
<ellipse cx="36.2906" cy="0.960935" rx="0.960696" ry="1.0025" transform="rotate(-90 36.2906 0.960935)" fill="#017CED"/>
<ellipse cx="44.9976" cy="0.960935" rx="0.960696" ry="1.0025" transform="rotate(-90 44.9976 0.960935)" fill="#017CED"/>
</svg>
