<svg width="511" height="182" viewBox="0 0 511 182" fill="none" xmlns="http://www.w3.org/2000/svg">
<g clip-path="url(#clip0_2580_1499)">
<path fill-rule="evenodd" clip-rule="evenodd" d="M150.752 78.5817C147.441 75.4317 137.032 76.6637 116.963 77.7907C120.925 61.0467 123.753 46.4307 131.152 35.0417C165.522 36.9667 207.76 41.7897 256.137 41.6497C351.372 41.3767 352.233 5.91469 352.233 5.91469C311.71 17.5907 256.053 14.1397 213.962 10.2617C161.112 5.40369 108.255 -6.76231 64.589 4.91369C13.02 18.7037 8.057 56.9937 9.898 73.4227C30.59 46.2697 58.576 36.6097 94.43 34.5797C97.825 34.3907 101.402 34.3207 105.056 34.2927C98.546 41.1177 93.492 51.8697 88.256 68.6347C87.122 72.3097 86.009 75.8237 84.91 79.2677C40.81 83.0967 32.249 103.243 34.783 108.528C37.478 114.156 53.123 106.778 72.653 104.608C73.899 104.468 75.103 104.356 76.293 104.23C68.663 123.949 60.235 138.033 46.669 146.265C25.984 158.809 4.34 153.006 0 149.52C1.68 172.536 36.288 185.08 65.702 168.98C89.152 156.156 102.718 125.538 110.152 102.592C116.62 102.571 123.086 102.368 129.542 101.983C147.287 100.793 155.078 82.7047 150.752 78.5887M506.632 52.8007C505.755 52.5198 504.831 52.4154 503.914 52.4934C502.997 52.5715 502.104 52.8305 501.287 53.2555C500.47 53.6804 499.746 54.263 499.155 54.9695C498.565 55.676 498.12 56.4924 497.847 57.3717C497.294 59.1217 497.455 60.9417 498.155 62.4817C491.484 68.5857 485.317 73.1077 482.069 72.0577C477.869 70.6997 481.047 59.2827 485.149 48.8737C486.948 49.1481 488.787 48.7677 490.329 47.8017C491.872 46.8357 493.017 45.3483 493.556 43.6097C494.175 41.6722 494.005 39.5687 493.082 37.7559C492.16 35.9432 490.559 34.5679 488.628 33.9287C487.673 33.6228 486.667 33.5091 485.668 33.594C484.669 33.6789 483.696 33.9609 482.807 34.4236C481.917 34.8863 481.128 35.5206 480.485 36.2899C479.841 37.0592 479.357 37.9482 479.059 38.9057C478.149 41.7757 478.996 44.7857 480.984 46.7597C475.524 56.7697 469.833 65.4287 464.849 63.9727L464.667 63.9237C459.655 62.2997 459.984 51.8627 461.293 40.4387C464.093 40.0397 466.571 38.0657 467.488 35.1607C468.11 33.2242 467.941 31.1206 467.02 29.3075C466.098 27.4945 464.498 26.1187 462.567 25.4797C461.612 25.1727 460.605 25.0582 459.605 25.1426C458.605 25.227 457.632 25.5087 456.741 25.9715C455.851 26.4343 455.061 27.0689 454.417 27.8388C453.774 28.6086 453.289 29.4984 452.991 30.4567C451.843 34.0757 453.481 37.9257 456.701 39.6267C454.062 50.5117 450.079 61.6627 445.879 60.3047C442.652 59.2547 440.237 52.0027 438.319 43.1547C439.518 42.4826 440.496 41.4762 441.133 40.258C441.77 39.0398 442.039 37.6626 441.907 36.2942C441.775 34.9258 441.248 33.6254 440.389 32.5516C439.531 31.4778 438.379 30.6769 437.073 30.2467C436.196 29.9659 435.271 29.8618 434.354 29.9403C433.436 30.0188 432.543 30.2784 431.726 30.7041C430.909 31.1298 430.185 31.7131 429.595 32.4204C429.005 33.1276 428.56 33.9448 428.288 34.8247C427.986 35.7721 427.887 36.7725 427.997 37.7608C428.107 38.7491 428.424 39.7031 428.927 40.5608C429.43 41.4186 430.108 42.1607 430.917 42.7391C431.726 43.3174 432.648 43.719 433.622 43.9177L434.861 73.5837L483.413 89.3547L501.487 65.9047C502.389 66.3367 503.373 66.5694 504.373 66.5871C505.373 66.6048 506.364 66.407 507.281 66.0072C508.197 65.6074 509.017 65.0149 509.684 64.2701C510.351 63.5253 510.85 62.6455 511.147 61.6907C512.33 57.9737 510.307 53.9907 506.632 52.8007Z" fill="white"/>
<path fill-rule="evenodd" clip-rule="evenodd" d="M450.835 135.485C441.826 151.487 428.953 159.635 422.093 153.699C415.233 147.763 416.983 129.976 425.992 113.974C435.001 97.979 447.867 89.824 454.727 95.767C461.587 101.703 459.844 119.49 450.835 135.485ZM438.606 80.5C438.606 80.5 427.063 84.84 419.034 92.442C416.304 95.032 413.672 97.713 411.285 100.688L411.236 100.758C409.017 103.53 407.281 106.498 405.426 109.676C402.836 114.072 400.575 118.706 398.79 123.557V123.536C398.79 123.536 394.142 133.35 390.74 138.25C387.436 143.01 381.164 147.56 378.658 149.282C375.727 150.649 372.696 151.793 369.593 152.705C348.978 158.718 345.191 143.885 349.804 136.885C351.463 134.372 362.873 125.601 370.671 119.112C385.756 106.582 396.095 98.63 403.193 91.42C410.711 83.79 405.853 79.576 400.015 78.568C385.455 76.055 378.791 79.947 374.549 83.587C369.439 87.976 338.954 124.733 338.954 124.733C338.954 124.733 388.57 28.728 396.711 12.222C403.431 -1.379 371.189 -3.262 362.285 16.303C357.105 27.685 321.545 110.075 317.205 120.267C309.267 138.901 308.791 141.813 304.822 145.075C304.782 145.124 304.745 145.176 304.71 145.229L304.402 145.425C304.388 145.425 304.381 145.439 304.367 145.453C300.545 148.61 295.197 151.459 291.627 151.403C289.478 151.382 288.211 150.094 287.847 147.455C287.476 144.823 287.791 141.463 288.792 137.375C289.387 134.939 290.178 132.272 291.186 129.374C292.187 126.476 293.279 123.55 294.462 120.582C295.638 117.614 296.849 114.716 298.102 111.888L301.532 104.076C302.561 101.71 303.436 99.666 304.15 97.958C304.864 96.236 305.305 95.018 305.48 94.297C306.67 89.425 306.439 85.036 305.193 82.264C303.94 79.499 301.686 78.113 298.417 78.113C295.155 78.113 292.068 79.03 289.226 80.661C286.097 82.453 283.248 84.413 280.287 87.976C277.772 91.0446 275.313 94.1577 272.909 97.314C271.278 99.456 269.542 101.689 267.694 104.034C265.853 106.372 264.117 108.584 262.493 110.698C260.155 113.731 257.815 116.762 255.472 119.791H253.512C253.624 119.329 253.946 118.426 254.464 117.075C254.996 115.724 255.626 114.135 256.368 112.329C258.006 108.29 259.616 104.239 261.198 100.177C261.982 98.168 262.668 96.327 263.284 94.64C263.886 92.96 264.313 91.63 264.544 90.636C265.433 87.017 265.454 84.119 264.614 81.949C263.774 79.772 261.597 78.687 258.069 78.687C254.541 78.687 251.503 79.709 248.948 81.746C246.389 83.792 244.33 86.3942 242.928 89.355C240.73 93.9846 238.639 98.6642 236.656 103.39C231.899 114.708 227.556 126.196 223.636 137.83C222.81 140.286 222.024 142.755 221.277 145.236C216.636 147.595 211.827 149.604 206.843 151.116C204.932 151.697 202.559 152.096 201.187 150.626C200.179 149.555 200.158 147.896 200.298 146.419C201.012 138.621 204.351 131.355 207.515 124.208C212.848 112.171 217.829 99.981 222.453 87.654C223.027 86.114 223.608 84.413 223.104 82.852C222.32 80.395 219.394 79.499 216.874 79.163C211.414 78.442 205.114 78.988 201.586 83.265C200.424 84.679 199.675 86.387 198.94 88.067L180.824 129.395C177.016 138.075 172.305 147.623 163.436 150.71C161.896 151.249 160.167 151.55 158.676 150.885C156.772 150.038 155.785 147.784 155.792 145.677C155.799 143.57 156.604 141.561 157.395 139.608C164.857 121.226 170.373 108.444 177.835 90.055C178.185 89.215 180.033 84.917 180.089 82.901C180.073 82.265 179.885 81.6453 179.545 81.1078C179.205 80.5703 178.725 80.1352 178.157 79.849C173.397 77.644 167.601 78.974 163.303 81.998C156.534 86.758 152.831 94.458 149.492 101.787C145.789 109.914 142.03 118.027 138.656 126.315C134.799 135.8 130.669 144.984 128.562 155.029C127.491 160.16 127.785 166.775 131.474 170.457C133.882 172.858 137.48 173.551 140.854 173.656C154.518 174.09 167.454 166.859 177.429 157.402C177.779 162.407 178.514 168.14 182.658 170.912C185.304 172.669 188.706 172.725 191.856 172.382C198.191 171.71 204.323 169.722 210.245 167.342C212.716 166.341 215.152 165.277 217.56 164.143C217.588 165.214 217.7 166.229 217.889 167.174C218.309 169.113 219.177 170.66 220.535 171.815C221.879 172.963 223.895 173.544 226.576 173.544C228.725 173.544 230.741 173.047 232.617 172.06C234.486 171.08 236.411 169.232 238.371 166.53L276.591 115.143H278.159C276.224 120.039 274.367 124.965 272.587 129.92C271.064 134.112 269.76 138.381 268.681 142.709C266.217 152.789 265.573 160.454 266.742 165.69C267.911 170.926 270.291 173.544 273.882 173.544C277.473 173.544 281.022 173.033 284.543 172.011C288.097 170.973 291.562 169.651 294.903 168.056C297.255 166.943 299.565 165.683 301.868 164.367C301.861 165.235 301.609 166.894 301.574 167.678C301.455 170.513 301.875 171.108 303.184 172.326C304.486 173.551 305.844 173.663 308.644 173.663C310.744 173.663 311.5 173.474 313.341 172.13C315.077 170.87 321.37 161.462 326.214 154.763C327.012 153.664 327.887 152.523 328.853 151.34C327.075 159.649 330.897 171.78 342.349 173.67C353.479 175.504 371.581 172.949 394.94 154.735C395.353 157.276 395.99 159.677 396.872 161.917C398.566 166.208 401.233 169.687 404.866 172.347C408.499 175.007 413.336 176.344 419.37 176.344C423.556 176.344 427.679 175.616 431.732 174.16C435.856 172.677 439.782 170.693 443.422 168.252C447.224 165.698 450.74 162.741 453.908 159.432C460.186 152.885 465.352 145.357 469.203 137.144C472.563 129.5 474.173 123.774 475.853 114.968C476.623 110.278 477.043 106.134 476.987 102.34C476.987 102.34 476.567 92.974 475.293 92.12C474.026 91.266 438.606 80.5 438.606 80.5Z" fill="white"/>
</g>
<defs>
<clipPath id="clip0_2580_1499">
<rect width="511" height="182" fill="white"/>
</clipPath>
</defs>
</svg>
