<svg width="20" height="21" viewBox="0 0 20 21" fill="none" xmlns="http://www.w3.org/2000/svg">
<g clip-path="url(#clip0_2282_746)">
<path d="M13.3032 10.5C12.7751 10.5 12.2782 10.2187 12.0095 9.76875L10.0001 6.4375L7.99385 9.76875C7.72198 10.2219 7.2251 10.5031 6.69698 10.5031C6.55635 10.5031 6.41573 10.4844 6.28135 10.4437L2.0001 9.21875V14.7812C2.0001 15.2406 2.3126 15.6406 2.75635 15.75L9.5126 17.4406C9.83135 17.5187 10.1657 17.5187 10.4814 17.4406L17.2439 15.75C17.6876 15.6375 18.0001 15.2375 18.0001 14.7812V9.21875L13.7189 10.4406C13.5845 10.4812 13.4439 10.5 13.3032 10.5ZM19.947 6.99375L18.3376 3.78125C18.2407 3.5875 18.0314 3.475 17.8157 3.50312L10.0001 4.5L12.8657 9.25312C12.9845 9.45 13.222 9.54375 13.4439 9.48125L19.6282 7.71562C19.9376 7.625 20.0876 7.28125 19.947 6.99375ZM1.6626 3.78125L0.053227 6.99375C-0.090523 7.28125 0.062602 7.625 0.368852 7.7125L6.55323 9.47812C6.7751 9.54062 7.0126 9.44687 7.13135 9.25L10.0001 4.5L2.18135 3.50312C1.96573 3.47812 1.75948 3.5875 1.6626 3.78125Z" fill="black"/>
</g>
<defs>
<clipPath id="clip0_2282_746">
<rect width="20" height="20" fill="white" transform="translate(0 0.5)"/>
</clipPath>
</defs>
</svg>
