<svg width="20" height="21" viewBox="0 0 20 21" fill="none" xmlns="http://www.w3.org/2000/svg">
<path d="M15.887 16.6627C15.8356 16.4037 15.5809 16.238 15.3235 16.2967C14.9059 16.392 14.2523 16.5082 13.5491 16.5082C11.3318 16.5082 9.56746 15.1492 8.80449 13.1703H13.2455C13.3519 13.1703 13.4552 13.1341 13.5383 13.0676C13.6215 13.001 13.6795 12.9082 13.7028 12.8043L13.9518 11.6965C14.0176 11.4035 13.7948 11.125 13.4944 11.125H8.25078C8.20352 10.5653 8.19555 10.02 8.25613 9.4748H13.9824C14.0893 9.47481 14.193 9.43827 14.2763 9.37124C14.3596 9.30421 14.4175 9.21073 14.4404 9.10629L14.6947 7.94398C14.7587 7.65164 14.5361 7.375 14.2368 7.375H8.83531C9.64129 5.61754 11.2841 4.44414 13.4298 4.44414C13.9957 4.44414 14.5456 4.53203 14.9084 4.60605C15.1512 4.65559 15.3907 4.50848 15.4553 4.26922L15.9237 2.53609C15.9949 2.27277 15.8274 2.00422 15.5594 1.9534C15.0866 1.86375 14.3246 1.75 13.5014 1.75C9.70512 1.75 6.6418 4.10359 5.51074 7.375H4.21875C3.95988 7.375 3.75 7.58488 3.75 7.84375V9.00605C3.75 9.26492 3.95988 9.4748 4.21875 9.4748H5.06129C5.02188 10.0063 5.01516 10.6188 5.05422 11.125H4.21875C3.95988 11.125 3.75 11.3349 3.75 11.5938V12.7016C3.75 12.9604 3.95988 13.1703 4.21875 13.1703H5.39508C6.37262 16.6989 9.42437 19.25 13.5014 19.25C14.5287 19.25 15.3983 19.0725 15.8881 18.9458C16.129 18.8835 16.2798 18.6447 16.2314 18.4006L15.887 16.6627Z" fill="black"/>
</svg>
