<svg width="20" height="21" viewBox="0 0 20 21" fill="none" xmlns="http://www.w3.org/2000/svg">
<g clip-path="url(#clip0_2282_761)">
<path d="M9.7351 6.75904L3.33337 12.0316V17.7222C3.33337 17.8696 3.3919 18.0109 3.49608 18.1151C3.60027 18.2193 3.74158 18.2778 3.88892 18.2778L7.77989 18.2677C7.92675 18.267 8.06735 18.2081 8.17093 18.104C8.27452 17.9999 8.33267 17.859 8.33267 17.7122V14.3889C8.33267 14.2416 8.3912 14.1002 8.49539 13.9961C8.59958 13.8919 8.74088 13.8333 8.88823 13.8333H11.1104C11.2578 13.8333 11.3991 13.8919 11.5033 13.9961C11.6075 14.1002 11.666 14.2416 11.666 14.3889V17.7097C11.6658 17.7828 11.68 17.8553 11.7078 17.9229C11.7356 17.9905 11.7765 18.0519 11.8281 18.1037C11.8797 18.1555 11.941 18.1965 12.0086 18.2246C12.0761 18.2526 12.1485 18.267 12.2216 18.267L16.1111 18.2778C16.2585 18.2778 16.3998 18.2193 16.504 18.1151C16.6082 18.0109 16.6667 17.8696 16.6667 17.7222V12.0278L10.2664 6.75904C10.1911 6.69839 10.0974 6.66531 10.0007 6.66531C9.90408 6.66531 9.81035 6.69839 9.7351 6.75904ZM19.8473 10.3427L16.9445 7.95001V3.14064C16.9445 3.03013 16.9006 2.92415 16.8224 2.84601C16.7443 2.76787 16.6383 2.72397 16.5278 2.72397H14.5834C14.4729 2.72397 14.3669 2.76787 14.2887 2.84601C14.2106 2.92415 14.1667 3.03013 14.1667 3.14064V5.66182L11.058 3.10418C10.7597 2.85868 10.3853 2.72446 9.99899 2.72446C9.61264 2.72446 9.23829 2.85868 8.93996 3.10418L0.150727 10.3427C0.108535 10.3776 0.0736277 10.4204 0.0479999 10.4688C0.0223721 10.5172 0.00652587 10.5701 0.00136663 10.6246C-0.0037926 10.6791 0.00183625 10.7341 0.0179316 10.7864C0.0340269 10.8387 0.0602733 10.8874 0.095171 10.9295L0.980588 12.0059C1.01539 12.0482 1.0582 12.0833 1.10656 12.109C1.15492 12.1348 1.20789 12.1507 1.26242 12.156C1.31696 12.1613 1.372 12.1557 1.42439 12.1397C1.47678 12.1236 1.5255 12.0974 1.56774 12.0625L9.7351 5.33543C9.81035 5.27478 9.90408 5.2417 10.0007 5.2417C10.0974 5.2417 10.1911 5.27478 10.2664 5.33543L18.4341 12.0625C18.4762 12.0974 18.5249 12.1237 18.5772 12.1397C18.6295 12.1558 18.6845 12.1615 18.739 12.1563C18.7935 12.1512 18.8464 12.1353 18.8948 12.1097C18.9431 12.0841 18.986 12.0491 19.0209 12.007L19.9063 10.9306C19.9411 10.8882 19.9673 10.8393 19.9832 10.7867C19.9991 10.7342 20.0045 10.679 19.999 10.6244C19.9935 10.5697 19.9773 10.5167 19.9512 10.4684C19.9252 10.4201 19.8899 10.3774 19.8473 10.3427Z" fill="black"/>
</g>
<defs>
<clipPath id="clip0_2282_761">
<rect width="20" height="20" fill="white" transform="translate(0 0.5)"/>
</clipPath>
</defs>
</svg>
