<svg width="20" height="21" viewBox="0 0 20 21" fill="none" xmlns="http://www.w3.org/2000/svg">
<path d="M14.7617 4.63672L19.5586 9.43359C19.8398 9.71484 20 10.1016 20 10.5C20 10.8984 19.8398 11.2852 19.5586 11.5664L14.7617 16.3633C14.5117 16.6133 14.1758 16.75 13.8242 16.75C13.0938 16.75 12.5 16.1562 12.5 15.4258V13H7.5C6.80859 13 6.25 12.4414 6.25 11.75V9.25C6.25 8.55859 6.80859 8 7.5 8H12.5V5.57422C12.5 4.84375 13.0938 4.25 13.8242 4.25C14.1758 4.25 14.5117 4.39062 14.7617 4.63672ZM6.25 4.25H3.75C3.05859 4.25 2.5 4.80859 2.5 5.5V15.5C2.5 16.1914 3.05859 16.75 3.75 16.75H6.25C6.94141 16.75 7.5 17.3086 7.5 18C7.5 18.6914 6.94141 19.25 6.25 19.25H3.75C1.67969 19.25 0 17.5703 0 15.5V5.5C0 3.42969 1.67969 1.75 3.75 1.75H6.25C6.94141 1.75 7.5 2.30859 7.5 3C7.5 3.69141 6.94141 4.25 6.25 4.25Z" fill="black"/>
</svg>
