<svg width="20" height="21" viewBox="0 0 20 21" fill="none" xmlns="http://www.w3.org/2000/svg">
<g clip-path="url(#clip0_2282_750)">
<path d="M15 6.75V5.5C15 2.74297 12.757 0.5 10 0.5C7.24297 0.5 5 2.74297 5 5.5V6.75H1.25V17.375C1.25 19.1009 2.6491 20.5 4.375 20.5H15.625C17.3509 20.5 18.75 19.1009 18.75 17.375V6.75H15ZM7.5 5.5C7.5 4.12148 8.62148 3 10 3C11.3785 3 12.5 4.12148 12.5 5.5V6.75H7.5V5.5ZM13.75 10.1875C13.2322 10.1875 12.8125 9.76777 12.8125 9.25C12.8125 8.73223 13.2322 8.3125 13.75 8.3125C14.2678 8.3125 14.6875 8.73223 14.6875 9.25C14.6875 9.76777 14.2678 10.1875 13.75 10.1875ZM6.25 10.1875C5.73223 10.1875 5.3125 9.76777 5.3125 9.25C5.3125 8.73223 5.73223 8.3125 6.25 8.3125C6.76777 8.3125 7.1875 8.73223 7.1875 9.25C7.1875 9.76777 6.76777 10.1875 6.25 10.1875Z" fill="black"/>
</g>
<defs>
<clipPath id="clip0_2282_750">
<rect width="20" height="20" fill="white" transform="translate(0 0.5)"/>
</clipPath>
</defs>
</svg>
