<svg width="16" height="22" viewBox="0 0 16 22" fill="none" xmlns="http://www.w3.org/2000/svg">
<path d="M8 15.125C10.2782 15.125 12.125 13.2782 12.125 11V4.125C12.125 1.8468 10.2782 0 8 0C5.7218 0 3.875 1.8468 3.875 4.125V11C3.875 13.2782 5.7218 15.125 8 15.125ZM14.875 8.25H14.1875C13.8077 8.25 13.5 8.55766 13.5 8.9375V11C13.5 14.2141 10.7289 16.793 7.45043 16.4734C4.59301 16.1945 2.5 13.6258 2.5 10.7551V8.9375C2.5 8.55766 2.19234 8.25 1.8125 8.25H1.125C0.745156 8.25 0.4375 8.55766 0.4375 8.9375V10.6631C0.4375 14.5148 3.18621 17.9485 6.96875 18.4701V19.9375H4.5625C4.18266 19.9375 3.875 20.2452 3.875 20.625V21.3125C3.875 21.6923 4.18266 22 4.5625 22H11.4375C11.8173 22 12.125 21.6923 12.125 21.3125V20.625C12.125 20.2452 11.8173 19.9375 11.4375 19.9375H9.03125V18.4864C12.7141 17.9811 15.5625 14.8199 15.5625 11V8.9375C15.5625 8.55766 15.2548 8.25 14.875 8.25Z" fill="black"/>
</svg>
